<svg width="84" height="78" viewBox="0 0 84 78" fill="none" xmlns="http://www.w3.org/2000/svg">
<g opacity="0.3">
<path d="M75.2218 65.9431C72.4795 70.5887 69.7352 74.1246 65.4516 70.2743C63.2469 68.2934 63.7621 64.7017 63.3969 62.5057C62.9567 59.8718 61.9666 58.668 63.4422 56.569C64.8795 54.5204 68.3142 55.1873 71.1541 55.1758C74.1671 55.1623 76.2746 54.3306 78.5287 56.9838C80.5346 59.3433 79.8753 61.6141 75.2218 65.9431Z" fill="#0D96A0"/>
<path d="M52.0664 53.0971C54.4455 50.6893 64.0922 55.8636 58.9782 59.7245C55.1716 62.5943 49.7005 55.6316 52.0664 53.0971Z" fill="#0D96A0"/>
<path d="M53.9931 62.6653C56.2249 60.1245 66.0719 64.8251 61.2106 68.971C57.5887 72.0521 51.44 65.1784 53.9931 62.6653Z" fill="#0D96A0"/>
<path d="M56.3761 47.5547C55.172 50.7573 63.6077 57.8219 65.0239 51.4621C66.0787 46.7266 57.31 44.1848 56.3761 47.5547Z" fill="#0D96A0"/>
<path d="M67.3 46.1705C64.9657 48.6199 69.801 56.9572 74.3716 52.6314C77.8133 49.3718 69.4151 43.5593 67.3 46.1705Z" fill="#0D96A0"/>
<path d="M29.2814 28.0391C26.539 32.6847 23.7948 36.2206 19.5112 32.3703C17.3065 30.3894 17.8217 26.7976 17.4565 24.6017C17.0163 21.9678 16.0262 20.7639 17.5017 18.665C18.9391 16.6163 22.3738 17.2833 25.2137 17.2717C28.2267 17.2582 30.3341 16.4266 32.5883 19.0797C34.5942 21.4392 33.9349 23.7101 29.2814 28.0391Z" fill="#0D96A0"/>
<path d="M6.126 15.1931C8.50503 12.7852 18.1518 17.9596 13.0378 21.8205C9.2312 24.6903 3.76006 17.7275 6.126 15.1931Z" fill="#0D96A0"/>
<path d="M8.0527 24.7613C10.2845 22.2205 20.1314 26.921 15.2702 31.0669C11.6483 34.1481 5.4996 27.2744 8.0527 24.7613Z" fill="#0D96A0"/>
<path d="M10.4357 9.65066C9.2316 12.8532 17.6673 19.9178 19.0834 13.5581C20.1383 8.8225 11.3695 6.28073 10.4357 9.65066Z" fill="#0D96A0"/>
<path d="M21.3596 8.26648C19.0253 10.7159 23.8605 19.0531 28.4312 14.7273C31.8728 11.4678 23.4747 5.65521 21.3596 8.26648Z" fill="#0D96A0"/>
<path d="M58.5808 28.7631C53.5596 30.7355 49.2202 31.8323 48.2152 26.161C47.6974 23.2427 50.3147 20.7296 51.3789 18.7743C52.6536 16.4277 52.6145 14.8695 55.0695 14.1239C57.4635 13.3945 59.7594 16.0347 62.0044 17.774C64.387 19.6184 66.5597 20.2605 66.7025 23.739C66.8305 26.8332 64.9129 28.2168 58.5808 28.7631Z" fill="#0D96A0"/>
<path d="M48.2427 4.38447C51.5999 3.95174 56.0159 13.9683 49.6091 13.8623C44.8426 13.7801 44.818 4.92503 48.2427 4.38447Z" fill="#0D96A0"/>
<path d="M43.8702 13.1105C47.1932 12.4823 52.0587 22.2488 45.6756 22.5229C40.9245 22.721 40.3111 13.519 43.8702 13.1105Z" fill="#0D96A0"/>
<path d="M55.0511 2.6702C52.1305 4.45253 54.4285 15.2131 59.4599 11.0734C63.2067 7.99111 57.8617 0.589601 55.0511 2.6702Z" fill="#0D96A0"/>
<path d="M64.5114 8.30495C61.1639 8.79796 59.8412 18.3447 66.1062 17.7499C70.825 17.3002 67.7858 7.54943 64.5114 8.30495Z" fill="#0D96A0"/>
</g>
</svg>
