<svg xmlns="http://www.w3.org/2000/svg" width="26" height="25" fill="none" viewBox="0 0 26 25"><path fill="#0d96a0" d="M12.992 24.63c-5.007.654-9.196.668-8.825-4.71.19-2.768 3.137-4.458 4.546-5.993 1.69-1.842 2.007-3.266 4.405-3.387 2.34-.12 3.827 2.797 5.472 4.885 1.746 2.215 3.574 3.29 2.916 6.481-.585 2.84-2.64 3.662-8.514 2.724M9.123.149c3.147.367 4.89 10.464-.905 8.917-4.31-1.154-2.327-9.202.905-8.917"/><path fill="#0d96a0" d="M3.176 7.083c3.16.182 5.368 10.154-.492 8.958-4.36-.896-2.833-9.392.492-8.958M15.695.133c-3.056.958-3.406 11.25 2.101 8.63 4.1-1.95.922-9.883-2.101-8.63m7.315 7.26c-3.151-.31-6.514 8.06-.69 8.939 4.387.66 3.835-8.884.69-8.939"/></svg>